<?xml version="1.0" encoding="utf-8"?>
<!-- Generator: Adobe Illustrator 26.0.1, SVG Export Plug-In . SVG Version: 6.00 Build 0)  -->
<svg version="1.1" id="Layer_1" xmlns="http://www.w3.org/2000/svg" xmlns:xlink="http://www.w3.org/1999/xlink" x="0px" y="0px"
	 viewBox="0 0 997 582" style="enable-background:new 0 0 997 582;" xml:space="preserve">
<style type="text/css">
	.st0{fill:url(#SVGID_1_);}
	.st1{fill:#FFFFFF;}
	.st2{fill:url(#SVGID_00000023242736984894033490000017702390978418852496_);}
	.st3{fill:url(#SVGID_00000114755347880792317740000008174243720794679427_);}
	.st4{fill:#404040;}
	.st5{font-family:'ArialRoundedMTBold';}
	.st6{font-size:222px;}
	.st7{letter-spacing:11;}
</style>
<g>
	<g>
		<g>
			<linearGradient id="SVGID_1_" gradientUnits="userSpaceOnUse" x1="26.5" y1="394" x2="383.499" y2="394">
				<stop  offset="0" style="stop-color:#FFFFFF;stop-opacity:0.8"/>
				<stop  offset="0.0506" style="stop-color:#FFEDD8;stop-opacity:0.817"/>
				<stop  offset="0.1238" style="stop-color:#FFD5A7;stop-opacity:0.8416"/>
				<stop  offset="0.199" style="stop-color:#FFC17D;stop-opacity:0.8669"/>
				<stop  offset="0.2748" style="stop-color:#FFB05B;stop-opacity:0.8924"/>
				<stop  offset="0.3515" style="stop-color:#FFA340;stop-opacity:0.9182"/>
				<stop  offset="0.4295" style="stop-color:#FF9A2D;stop-opacity:0.9444"/>
				<stop  offset="0.5095" style="stop-color:#FF9522;stop-opacity:0.9714"/>
				<stop  offset="0.5947" style="stop-color:#FF931E"/>
			</linearGradient>
			<path class="st0" d="M26.5,572.5V363c0-39.41,15.34-76.45,43.2-104.3c27.85-27.86,64.89-43.2,104.3-43.2h209.5
				c-0.13,39.22-15.46,76.06-43.2,103.8c-27.85,27.86-64.89,43.2-104.3,43.2h-45.5V424c0,81.88-66.62,148.5-148.5,148.5H26.5z"/>
			<path class="st1" d="M383,216c-0.26,38.9-15.52,75.42-43.05,102.94C312.19,346.71,275.27,362,236,362h-45h-1v1v61
				c0,39.53-15.39,76.7-43.35,104.65C118.7,556.61,81.53,572,42,572H27V363c0-39.27,15.29-76.19,43.06-103.94
				C97.81,231.29,134.73,216,174,216H383 M384,215H174c-40.87,0-77.87,16.56-104.65,43.35C42.56,285.13,26,322.13,26,363v210h16
				c82.29,0,149-66.71,149-149v-61h45c40.87,0,77.87-16.56,104.65-43.35C367.44,292.87,384,255.87,384,215L384,215z"/>
		</g>
		<g>
			
				<linearGradient id="SVGID_00000183241560122346919460000009963515425431084677_" gradientUnits="userSpaceOnUse" x1="26.501" y1="111" x2="521.499" y2="111">
				<stop  offset="0" style="stop-color:#FFFFFF;stop-opacity:0.8"/>
				<stop  offset="0.0503" style="stop-color:#FFEDD8;stop-opacity:0.817"/>
				<stop  offset="0.123" style="stop-color:#FFD5A7;stop-opacity:0.8416"/>
				<stop  offset="0.1976" style="stop-color:#FFC17D;stop-opacity:0.8669"/>
				<stop  offset="0.2729" style="stop-color:#FFB05B;stop-opacity:0.8924"/>
				<stop  offset="0.3491" style="stop-color:#FFA340;stop-opacity:0.9182"/>
				<stop  offset="0.4265" style="stop-color:#FF9A2D;stop-opacity:0.9444"/>
				<stop  offset="0.506" style="stop-color:#FF9522;stop-opacity:0.9714"/>
				<stop  offset="0.5906" style="stop-color:#FF931E"/>
			</linearGradient>
			<path style="fill:url(#SVGID_00000183241560122346919460000009963515425431084677_);" d="M26.5,184.5
				c0.13-39.22,15.46-76.06,43.2-103.8C97.55,52.84,134.59,37.5,174,37.5h347.5c-0.13,39.22-15.46,76.06-43.2,103.8
				c-27.85,27.86-64.89,43.2-104.3,43.2H26.5z"/>
			<path class="st1" d="M521,38c-0.26,38.9-15.52,75.42-43.05,102.94C450.19,168.71,413.27,184,374,184H27
				c0.26-38.9,15.52-75.42,43.05-102.94C97.81,53.29,134.73,38,174,38H521 M522,37H174c-40.87,0-77.87,16.56-104.65,43.35
				C42.56,107.13,26,144.13,26,185h348c40.87,0,77.87-16.56,104.65-43.35C505.44,114.87,522,77.87,522,37L522,37z"/>
		</g>
	</g>
	<g>
		
			<linearGradient id="SVGID_00000121959253094894063580000018237166968395037066_" gradientUnits="userSpaceOnUse" x1="27" y1="467" x2="191" y2="467">
			<stop  offset="0" style="stop-color:#FFFFFF;stop-opacity:0.8"/>
			<stop  offset="0.0423" style="stop-color:#FFEDD8;stop-opacity:0.817"/>
			<stop  offset="0.1035" style="stop-color:#FFD5A7;stop-opacity:0.8416"/>
			<stop  offset="0.1664" style="stop-color:#FFC17D;stop-opacity:0.8669"/>
			<stop  offset="0.2298" style="stop-color:#FFB05B;stop-opacity:0.8924"/>
			<stop  offset="0.2939" style="stop-color:#FFA340;stop-opacity:0.9182"/>
			<stop  offset="0.3591" style="stop-color:#FF9A2D;stop-opacity:0.9444"/>
			<stop  offset="0.4261" style="stop-color:#FF9522;stop-opacity:0.9714"/>
			<stop  offset="0.4973" style="stop-color:#FF931E"/>
		</linearGradient>
		<path style="fill:url(#SVGID_00000121959253094894063580000018237166968395037066_);" d="M175,362h16v62
			c0,81.74-66.26,148-148,148H27v-62C27,428.26,93.26,362,175,362z"/>
	</g>
</g>
<text transform="matrix(1 0 0 1 282.0625 508.3906)" class="st4 st5 st6 st7">reshly</text>
</svg>
